<svg width="134" height="94" viewBox="0 0 134 94" fill="none" xmlns="http://www.w3.org/2000/svg">
<path d="M1.764 80.612V85.892C1.764 86.724 1.96 87.34 2.352 87.74C2.752 88.14 3.296 88.34 3.984 88.34C4.672 88.34 5.208 88.144 5.592 87.752C5.984 87.352 6.18 86.732 6.18 85.892V80.612H7.02V85.88C7.02 86.944 6.736 87.744 6.168 88.28C5.608 88.816 4.876 89.084 3.972 89.084C3.068 89.084 2.332 88.816 1.764 88.28C1.204 87.744 0.924 86.944 0.924 85.88V80.612H1.764ZM11.9656 82.328C12.7496 82.328 13.3896 82.572 13.8856 83.06C14.3816 83.54 14.6296 84.24 14.6296 85.16V89H13.8016V85.256C13.8016 84.544 13.6216 84 13.2616 83.624C12.9096 83.248 12.4256 83.06 11.8096 83.06C11.1776 83.06 10.6736 83.26 10.2976 83.66C9.92159 84.06 9.73359 84.648 9.73359 85.424V89H8.89359V82.448H9.73359V83.564C9.94159 83.164 10.2416 82.86 10.6336 82.652C11.0256 82.436 11.4696 82.328 11.9656 82.328ZM19.3963 85.712C19.3963 85.04 19.5283 84.452 19.7923 83.948C20.0643 83.436 20.4363 83.044 20.9083 82.772C21.3883 82.492 21.9283 82.352 22.5283 82.352C23.1523 82.352 23.6883 82.496 24.1363 82.784C24.5923 83.072 24.9203 83.44 25.1203 83.888V82.448H25.9603V89H25.1203V87.548C24.9123 87.996 24.5803 88.368 24.1243 88.664C23.6763 88.952 23.1403 89.096 22.5163 89.096C21.9243 89.096 21.3883 88.956 20.9083 88.676C20.4363 88.396 20.0643 88 19.7923 87.488C19.5283 86.976 19.3963 86.384 19.3963 85.712ZM25.1203 85.724C25.1203 85.196 25.0123 84.732 24.7963 84.332C24.5803 83.932 24.2843 83.624 23.9083 83.408C23.5403 83.192 23.1323 83.084 22.6843 83.084C22.2203 83.084 21.8043 83.188 21.4363 83.396C21.0683 83.604 20.7763 83.908 20.5603 84.308C20.3523 84.7 20.2483 85.168 20.2483 85.712C20.2483 86.248 20.3523 86.72 20.5603 87.128C20.7763 87.528 21.0683 87.836 21.4363 88.052C21.8043 88.26 22.2203 88.364 22.6843 88.364C23.1323 88.364 23.5403 88.256 23.9083 88.04C24.2843 87.824 24.5803 87.516 24.7963 87.116C25.0123 86.716 25.1203 86.252 25.1203 85.724ZM30.206 88.184L32.414 82.448H33.302L30.674 89H29.726L27.098 82.448H27.998L30.206 88.184ZM40.3685 85.388C40.3685 85.676 40.3605 85.896 40.3445 86.048H34.9085C34.9325 86.544 35.0525 86.968 35.2685 87.32C35.4845 87.672 35.7685 87.94 36.1205 88.124C36.4725 88.3 36.8565 88.388 37.2725 88.388C37.8165 88.388 38.2725 88.256 38.6405 87.992C39.0165 87.728 39.2645 87.372 39.3845 86.924H40.2725C40.1125 87.564 39.7685 88.088 39.2405 88.496C38.7205 88.896 38.0645 89.096 37.2725 89.096C36.6565 89.096 36.1045 88.96 35.6165 88.688C35.1285 88.408 34.7445 88.016 34.4645 87.512C34.1925 87 34.0565 86.404 34.0565 85.724C34.0565 85.044 34.1925 84.448 34.4645 83.936C34.7365 83.424 35.1165 83.032 35.6045 82.76C36.0925 82.488 36.6485 82.352 37.2725 82.352C37.8965 82.352 38.4405 82.488 38.9045 82.76C39.3765 83.032 39.7365 83.4 39.9845 83.864C40.2405 84.32 40.3685 84.828 40.3685 85.388ZM39.5165 85.364C39.5245 84.876 39.4245 84.46 39.2165 84.116C39.0165 83.772 38.7405 83.512 38.3885 83.336C38.0365 83.16 37.6525 83.072 37.2365 83.072C36.6125 83.072 36.0805 83.272 35.6405 83.672C35.2005 84.072 34.9565 84.636 34.9085 85.364H39.5165ZM44.9773 82.328C45.7613 82.328 46.4013 82.572 46.8973 83.06C47.3933 83.54 47.6413 84.24 47.6413 85.16V89H46.8133V85.256C46.8133 84.544 46.6333 84 46.2733 83.624C45.9213 83.248 45.4373 83.06 44.8213 83.06C44.1893 83.06 43.6853 83.26 43.3093 83.66C42.9333 84.06 42.7453 84.648 42.7453 85.424V89H41.9053V82.448H42.7453V83.564C42.9533 83.164 43.2533 82.86 43.6453 82.652C44.0373 82.436 44.4813 82.328 44.9773 82.328ZM49.9191 81.212C49.7511 81.212 49.6071 81.152 49.4871 81.032C49.3671 80.912 49.3071 80.764 49.3071 80.588C49.3071 80.412 49.3671 80.268 49.4871 80.156C49.6071 80.036 49.7511 79.976 49.9191 79.976C50.0871 79.976 50.2311 80.036 50.3511 80.156C50.4711 80.268 50.5311 80.412 50.5311 80.588C50.5311 80.764 50.4711 80.912 50.3511 81.032C50.2311 81.152 50.0871 81.212 49.9191 81.212ZM50.3391 82.448V89H49.4991V82.448H50.3391ZM53.0813 83.612C53.2653 83.204 53.5453 82.888 53.9213 82.664C54.3053 82.44 54.7733 82.328 55.3253 82.328V83.204H55.0973C54.4893 83.204 54.0013 83.368 53.6333 83.696C53.2653 84.024 53.0813 84.572 53.0813 85.34V89H52.2413V82.448H53.0813V83.612ZM62.1379 89.096C61.3859 89.096 60.7699 88.924 60.2899 88.58C59.8179 88.228 59.5539 87.752 59.4979 87.152H60.3619C60.4019 87.52 60.5739 87.82 60.8779 88.052C61.1899 88.276 61.6059 88.388 62.1259 88.388C62.5819 88.388 62.9379 88.28 63.1939 88.064C63.4579 87.848 63.5899 87.58 63.5899 87.26C63.5899 87.036 63.5179 86.852 63.3739 86.708C63.2299 86.564 63.0459 86.452 62.8219 86.372C62.6059 86.284 62.3099 86.192 61.9339 86.096C61.4459 85.968 61.0499 85.84 60.7459 85.712C60.4419 85.584 60.1819 85.396 59.9659 85.148C59.7579 84.892 59.6539 84.552 59.6539 84.128C59.6539 83.808 59.7499 83.512 59.9419 83.24C60.1339 82.968 60.4059 82.752 60.7579 82.592C61.1099 82.432 61.5099 82.352 61.9579 82.352C62.6619 82.352 63.2299 82.532 63.6619 82.892C64.0939 83.244 64.3259 83.732 64.3579 84.356H63.5179C63.4939 83.972 63.3419 83.664 63.0619 83.432C62.7899 83.192 62.4139 83.072 61.9339 83.072C61.5099 83.072 61.1659 83.172 60.9019 83.372C60.6379 83.572 60.5059 83.82 60.5059 84.116C60.5059 84.372 60.5819 84.584 60.7339 84.752C60.8939 84.912 61.0899 85.04 61.3219 85.136C61.5539 85.224 61.8659 85.324 62.2579 85.436C62.7299 85.564 63.1059 85.688 63.3859 85.808C63.6659 85.928 63.9059 86.104 64.1059 86.336C64.3059 86.568 64.4099 86.876 64.4179 87.26C64.4179 87.612 64.3219 87.928 64.1299 88.208C63.9379 88.48 63.6699 88.696 63.3259 88.856C62.9819 89.016 62.5859 89.096 62.1379 89.096ZM65.6151 85.712C65.6151 85.04 65.7471 84.452 66.0111 83.948C66.2831 83.436 66.6551 83.044 67.1271 82.772C67.6071 82.492 68.1471 82.352 68.7471 82.352C69.3711 82.352 69.9071 82.496 70.3551 82.784C70.8111 83.072 71.1391 83.44 71.3391 83.888V82.448H72.1791V89H71.3391V87.548C71.1311 87.996 70.7991 88.368 70.3431 88.664C69.8951 88.952 69.3591 89.096 68.7351 89.096C68.1431 89.096 67.6071 88.956 67.1271 88.676C66.6551 88.396 66.2831 88 66.0111 87.488C65.7471 86.976 65.6151 86.384 65.6151 85.712ZM71.3391 85.724C71.3391 85.196 71.2311 84.732 71.0151 84.332C70.7991 83.932 70.5031 83.624 70.1271 83.408C69.7591 83.192 69.3511 83.084 68.9031 83.084C68.4391 83.084 68.0231 83.188 67.6551 83.396C67.2871 83.604 66.9951 83.908 66.7791 84.308C66.5711 84.7 66.4671 85.168 66.4671 85.712C66.4671 86.248 66.5711 86.72 66.7791 87.128C66.9951 87.528 67.2871 87.836 67.6551 88.052C68.0231 88.26 68.4391 88.364 68.9031 88.364C69.3511 88.364 69.7591 88.256 70.1271 88.04C70.5031 87.824 70.7991 87.516 71.0151 87.116C71.2311 86.716 71.3391 86.252 71.3391 85.724ZM77.1687 82.328C77.9527 82.328 78.5927 82.572 79.0887 83.06C79.5847 83.54 79.8327 84.24 79.8327 85.16V89H79.0047V85.256C79.0047 84.544 78.8247 84 78.4647 83.624C78.1127 83.248 77.6287 83.06 77.0127 83.06C76.3807 83.06 75.8767 83.26 75.5007 83.66C75.1247 84.06 74.9367 84.648 74.9367 85.424V89H74.0967V82.448H74.9367V83.564C75.1447 83.164 75.4447 82.86 75.8367 82.652C76.2287 82.436 76.6727 82.328 77.1687 82.328ZM83.9465 89.096C83.1945 89.096 82.5785 88.924 82.0985 88.58C81.6265 88.228 81.3625 87.752 81.3065 87.152H82.1705C82.2105 87.52 82.3825 87.82 82.6865 88.052C82.9985 88.276 83.4145 88.388 83.9345 88.388C84.3905 88.388 84.7465 88.28 85.0025 88.064C85.2665 87.848 85.3985 87.58 85.3985 87.26C85.3985 87.036 85.3265 86.852 85.1825 86.708C85.0385 86.564 84.8545 86.452 84.6305 86.372C84.4145 86.284 84.1185 86.192 83.7425 86.096C83.2545 85.968 82.8585 85.84 82.5545 85.712C82.2505 85.584 81.9905 85.396 81.7745 85.148C81.5665 84.892 81.4625 84.552 81.4625 84.128C81.4625 83.808 81.5585 83.512 81.7505 83.24C81.9425 82.968 82.2145 82.752 82.5665 82.592C82.9185 82.432 83.3185 82.352 83.7665 82.352C84.4705 82.352 85.0385 82.532 85.4705 82.892C85.9025 83.244 86.1345 83.732 86.1665 84.356H85.3265C85.3025 83.972 85.1505 83.664 84.8705 83.432C84.5985 83.192 84.2225 83.072 83.7425 83.072C83.3185 83.072 82.9745 83.172 82.7105 83.372C82.4465 83.572 82.3145 83.82 82.3145 84.116C82.3145 84.372 82.3905 84.584 82.5425 84.752C82.7025 84.912 82.8985 85.04 83.1305 85.136C83.3625 85.224 83.6745 85.324 84.0665 85.436C84.5385 85.564 84.9145 85.688 85.1945 85.808C85.4745 85.928 85.7145 86.104 85.9145 86.336C86.1145 86.568 86.2185 86.876 86.2265 87.26C86.2265 87.612 86.1305 87.928 85.9385 88.208C85.7465 88.48 85.4785 88.696 85.1345 88.856C84.7905 89.016 84.3945 89.096 83.9465 89.096ZM90.7166 85.712C90.7166 85.04 90.8526 84.452 91.1246 83.948C91.3966 83.436 91.7686 83.044 92.2406 82.772C92.7206 82.492 93.2606 82.352 93.8606 82.352C94.4366 82.352 94.9566 82.492 95.4206 82.772C95.8846 83.052 96.2246 83.416 96.4406 83.864V80.12H97.2806V89H96.4406V87.536C96.2406 87.992 95.9126 88.368 95.4566 88.664C95.0006 88.952 94.4646 89.096 93.8486 89.096C93.2486 89.096 92.7086 88.956 92.2286 88.676C91.7566 88.396 91.3846 88 91.1126 87.488C90.8486 86.976 90.7166 86.384 90.7166 85.712ZM96.4406 85.724C96.4406 85.196 96.3326 84.732 96.1166 84.332C95.9006 83.932 95.6046 83.624 95.2286 83.408C94.8606 83.192 94.4526 83.084 94.0046 83.084C93.5406 83.084 93.1246 83.188 92.7566 83.396C92.3886 83.604 92.0966 83.908 91.8806 84.308C91.6726 84.7 91.5686 85.168 91.5686 85.712C91.5686 86.248 91.6726 86.72 91.8806 87.128C92.0966 87.528 92.3886 87.836 92.7566 88.052C93.1246 88.26 93.5406 88.364 94.0046 88.364C94.4526 88.364 94.8606 88.256 95.2286 88.04C95.6046 87.824 95.9006 87.516 96.1166 87.116C96.3326 86.716 96.4406 86.252 96.4406 85.724ZM98.8143 85.712C98.8143 85.04 98.9463 84.452 99.2103 83.948C99.4823 83.436 99.8543 83.044 100.326 82.772C100.806 82.492 101.346 82.352 101.946 82.352C102.57 82.352 103.106 82.496 103.554 82.784C104.01 83.072 104.338 83.44 104.538 83.888V82.448H105.378V89H104.538V87.548C104.33 87.996 103.998 88.368 103.542 88.664C103.094 88.952 102.558 89.096 101.934 89.096C101.342 89.096 100.806 88.956 100.326 88.676C99.8543 88.396 99.4823 88 99.2103 87.488C98.9463 86.976 98.8143 86.384 98.8143 85.712ZM104.538 85.724C104.538 85.196 104.43 84.732 104.214 84.332C103.998 83.932 103.702 83.624 103.326 83.408C102.958 83.192 102.55 83.084 102.102 83.084C101.638 83.084 101.222 83.188 100.854 83.396C100.486 83.604 100.194 83.908 99.9783 84.308C99.7703 84.7 99.6663 85.168 99.6663 85.712C99.6663 86.248 99.7703 86.72 99.9783 87.128C100.194 87.528 100.486 87.836 100.854 88.052C101.222 88.26 101.638 88.364 102.102 88.364C102.55 88.364 102.958 88.256 103.326 88.04C103.702 87.824 103.998 87.516 104.214 87.116C104.43 86.716 104.538 86.252 104.538 85.724ZM110.368 82.328C111.152 82.328 111.792 82.572 112.288 83.06C112.784 83.54 113.032 84.24 113.032 85.16V89H112.204V85.256C112.204 84.544 112.024 84 111.664 83.624C111.312 83.248 110.828 83.06 110.212 83.06C109.58 83.06 109.076 83.26 108.7 83.66C108.324 84.06 108.136 84.648 108.136 85.424V89H107.296V82.448H108.136V83.564C108.344 83.164 108.644 82.86 109.036 82.652C109.428 82.436 109.872 82.328 110.368 82.328ZM117.638 82.352C118.254 82.352 118.79 82.496 119.246 82.784C119.702 83.072 120.03 83.436 120.23 83.876V82.448H121.07V89.168C121.07 89.768 120.938 90.3 120.674 90.764C120.418 91.228 120.058 91.584 119.594 91.832C119.13 92.088 118.602 92.216 118.01 92.216C117.17 92.216 116.47 92.016 115.91 91.616C115.358 91.216 115.014 90.672 114.878 89.984H115.706C115.85 90.44 116.122 90.804 116.522 91.076C116.93 91.348 117.426 91.484 118.01 91.484C118.434 91.484 118.814 91.392 119.15 91.208C119.486 91.032 119.75 90.768 119.942 90.416C120.134 90.064 120.23 89.648 120.23 89.168V87.548C120.022 87.996 119.69 88.368 119.234 88.664C118.786 88.952 118.254 89.096 117.638 89.096C117.038 89.096 116.498 88.956 116.018 88.676C115.546 88.396 115.174 88 114.902 87.488C114.638 86.976 114.506 86.384 114.506 85.712C114.506 85.04 114.638 84.452 114.902 83.948C115.174 83.436 115.546 83.044 116.018 82.772C116.498 82.492 117.038 82.352 117.638 82.352ZM120.23 85.724C120.23 85.196 120.122 84.732 119.906 84.332C119.69 83.932 119.394 83.624 119.018 83.408C118.65 83.192 118.242 83.084 117.794 83.084C117.33 83.084 116.914 83.188 116.546 83.396C116.178 83.604 115.886 83.908 115.67 84.308C115.462 84.7 115.358 85.168 115.358 85.712C115.358 86.248 115.462 86.72 115.67 87.128C115.886 87.528 116.178 87.836 116.546 88.052C116.914 88.26 117.33 88.364 117.794 88.364C118.242 88.364 118.65 88.256 119.018 88.04C119.394 87.824 119.69 87.516 119.906 87.116C120.122 86.716 120.23 86.252 120.23 85.724ZM128.915 85.388C128.915 85.676 128.907 85.896 128.891 86.048H123.455C123.479 86.544 123.599 86.968 123.815 87.32C124.031 87.672 124.315 87.94 124.667 88.124C125.019 88.3 125.403 88.388 125.819 88.388C126.363 88.388 126.819 88.256 127.187 87.992C127.563 87.728 127.811 87.372 127.931 86.924H128.819C128.659 87.564 128.315 88.088 127.787 88.496C127.267 88.896 126.611 89.096 125.819 89.096C125.203 89.096 124.651 88.96 124.163 88.688C123.675 88.408 123.291 88.016 123.011 87.512C122.739 87 122.603 86.404 122.603 85.724C122.603 85.044 122.739 84.448 123.011 83.936C123.283 83.424 123.663 83.032 124.151 82.76C124.639 82.488 125.195 82.352 125.819 82.352C126.443 82.352 126.987 82.488 127.451 82.76C127.923 83.032 128.283 83.4 128.531 83.864C128.787 84.32 128.915 84.828 128.915 85.388ZM128.063 85.364C128.071 84.876 127.971 84.46 127.763 84.116C127.563 83.772 127.287 83.512 126.935 83.336C126.583 83.16 126.199 83.072 125.783 83.072C125.159 83.072 124.627 83.272 124.187 83.672C123.747 84.072 123.503 84.636 123.455 85.364H128.063ZM131.292 83.612C131.476 83.204 131.756 82.888 132.132 82.664C132.516 82.44 132.984 82.328 133.536 82.328V83.204H133.308C132.7 83.204 132.212 83.368 131.844 83.696C131.476 84.024 131.292 84.572 131.292 85.34V89H130.452V82.448H131.292V83.612Z" fill="white"/>
<path d="M19.0226 32.0078C14.6919 32.0253 10.4592 30.7193 6.8916 28.2649V22.4362H10.7222V26.0514C13.2202 27.5767 16.0956 28.3721 19.0226 28.3474C21.9502 28.3868 24.8283 27.5903 27.3188 26.0514V21.517L7.01943 14.0972V4.26998C10.5033 1.74257 14.7191 0.425068 19.0226 0.518841C23.3357 0.442101 27.559 1.75595 31.067 4.26586V10.0946H27.2363V6.47533C24.8118 4.90067 22.2553 4.1793 19.0226 4.1793C16.1292 4.10389 13.2806 4.9042 10.85 6.47533V11.5414L31.1494 18.9407V28.2608C27.5871 30.7233 23.3536 32.0314 19.0226 32.0078Z" fill="white"/>
<path d="M58.0921 31.5833V20.1814H42.3491V31.5833H38.5391V5.16036C41.3471 2.22539 45.8168 0.522949 50.2412 0.522949C54.6656 0.522949 59.1766 2.22539 61.9434 5.16036V31.5833H58.0921ZM58.0921 6.99058C56.0511 5.11913 53.2018 4.18341 50.2206 4.18341C47.34 4.11513 44.5361 5.11508 42.3491 6.99058V16.521H58.0921V6.99058Z" fill="white"/>
<path d="M91.5286 10.0987V6.31043C89.1865 4.777 86.4197 4.18341 83.2282 4.18341C80.1646 4.18341 77.4555 4.69455 74.9279 6.31043V15.0329H88.7618V18.6068H74.9279V31.5833H71.1138V4.05562C74.8578 1.6318 78.5152 0.522949 83.2406 0.522949C87.7763 0.522949 91.5822 1.54524 95.3716 4.05562V10.0987H91.5286Z" fill="white"/>
<path d="M114.512 32.0078C110.074 32.0575 105.716 30.8313 101.956 28.4752V4.05562C105.667 1.6318 110.203 0.568293 114.512 0.522949C118.635 0.522949 123.278 1.54524 127.067 4.05562V10.0987H123.237V6.38875C120.558 4.93588 117.559 4.1749 114.512 4.1749C111.464 4.1749 108.465 4.93588 105.787 6.38875V13.9611H119.616V17.535H105.787V26.0761C108.211 27.5683 111.32 28.3309 114.512 28.3309C117.617 28.3309 120.697 27.6507 123.237 26.0761V22.4197H127.067V28.4587C123.365 30.9031 118.726 32.0078 114.512 32.0078Z" fill="white"/>
<path d="M28.7193 54.782C27.3521 54.8048 26.0167 54.3694 24.9258 53.5453V38.9365C26.0284 38.1355 27.3563 37.7041 28.7193 37.7041C30.0822 37.7041 31.4102 38.1355 32.5128 38.9365V43.2895H31.651V39.3817C30.7962 38.7733 29.7685 38.4554 28.7193 38.4748C27.6679 38.4485 26.6368 38.7671 25.7834 39.3817V53.0919C26.6478 53.6824 27.6703 53.9984 28.7172 53.9984C29.7641 53.9984 30.7867 53.6824 31.651 53.0919V46.7315H29.2058V45.94H32.5045V53.5495C31.4168 54.3732 30.0836 54.8073 28.7193 54.782Z" fill="white"/>
<path d="M37.6789 54.7821C36.72 54.8111 35.7809 54.505 35.0234 53.9164V44.1964C35.7829 43.6085 36.7163 43.2894 37.6768 43.2894C38.6374 43.2894 39.5707 43.6085 40.3302 44.1964V49.2213H35.8399V53.4795C36.3749 53.8622 37.0213 54.0578 37.6789 54.036C38.3305 54.0712 38.9734 53.874 39.4932 53.4795V51.0062H40.3178V53.8917C39.5707 54.4902 38.636 54.8055 37.6789 54.7821ZM39.4932 44.6169C38.9763 44.2146 38.3334 44.0086 37.6789 44.0357C37.0167 44.0081 36.3658 44.2138 35.8399 44.6169V48.5247H39.4932V44.6169ZM37.9345 42.1725H37.0027L38.586 39.1963H39.588L37.9345 42.1725Z" fill="white"/>
<path d="M45.3364 54.7819C44.3219 54.8092 43.3312 54.4713 42.5449 53.8297V44.2416C43.3262 43.591 44.3203 43.2519 45.3364 43.2894C46.351 43.2622 47.3417 43.6001 48.128 44.2416V53.8297C47.34 54.4684 46.3505 54.8059 45.3364 54.7819ZM47.2909 44.6374C46.7244 44.2253 46.0367 44.0136 45.3364 44.0355C44.6372 44.0212 43.9519 44.2322 43.382 44.6374V53.4093C43.9409 53.8387 44.6319 54.0602 45.3364 54.0358C46.0405 54.0572 46.7305 53.836 47.2909 53.4093V44.6374Z" fill="white"/>
<path d="M53.9589 54.712C53.5472 54.7201 53.1393 54.6318 52.7677 54.4543C52.3961 54.2768 52.0712 54.015 51.8188 53.6897V44.2088H50.957V43.438H51.8188V39.728H52.6435V43.438H54.3671V44.2088H52.6435V53.3517C52.814 53.5388 53.0225 53.6875 53.255 53.7877C53.4875 53.8879 53.7387 53.9374 53.9919 53.933H54.4784V54.6997L53.9589 54.712Z" fill="white"/>
<path d="M59.0344 54.7817C58.0734 54.8061 57.1341 54.494 56.3789 53.8995V44.1961C57.1384 43.6081 58.0717 43.2891 59.0323 43.2891C59.9929 43.2891 60.9262 43.6081 61.6857 44.1961V49.2209H57.1953V53.4791C57.7304 53.8618 58.3768 54.0574 59.0344 54.0356C59.6859 54.0701 60.3286 53.8729 60.8487 53.4791V51.0058H61.6733V53.8913C60.9258 54.4891 59.9914 54.8044 59.0344 54.7817ZM60.8487 44.6165C60.3315 44.2148 59.6888 44.0089 59.0344 44.0353C58.3721 44.007 57.721 44.2127 57.1953 44.6165V48.5243H60.8487V44.6165Z" fill="white"/>
<path d="M66.5755 54.782C65.608 54.8077 64.6618 54.4958 63.8994 53.8998V44.1716C64.6602 43.5725 65.6075 43.2602 66.5755 43.2895C67.5428 43.2651 68.4886 43.5769 69.2516 44.1716V47.1066H68.4269V44.5921C67.893 44.2071 67.2458 44.0112 66.5879 44.0356C65.929 44.0036 65.2794 44.2002 64.7488 44.5921V53.4794C65.2803 53.8694 65.9293 54.0658 66.5879 54.0359C67.247 54.0702 67.8975 53.8734 68.4269 53.4794V50.9443H69.2516V53.9163C68.4886 54.5095 67.5415 54.8159 66.5755 54.782Z" fill="white"/>
<path d="M76.1874 54.621V44.6166C75.6325 44.2103 74.9575 44.0013 74.27 44.023C73.5852 44.008 72.912 44.2022 72.3403 44.5795V54.6087H71.5156V37.8687H72.3403V43.8004C72.9697 43.4495 73.6815 43.273 74.402 43.2893C75.3669 43.2579 76.3099 43.5804 77.0533 44.1961V54.621H76.1874Z" fill="white"/>
<path d="M84.0752 54.621V44.6165C83.5326 44.2119 82.8671 44.0067 82.1908 44.0353C81.507 44.007 80.8338 44.2119 80.2817 44.6165V54.621H79.457V44.1713C80.254 43.598 81.2111 43.2896 82.1929 43.2896C83.1748 43.2896 84.1318 43.598 84.9288 44.1713V54.621H84.0752Z" fill="white"/>
<path d="M87.3828 40.1935V37.8687H88.2899V40.1935H87.3828ZM87.4076 54.621V43.45H88.2322V54.621H87.4076Z" fill="white"/>
<path d="M95.3904 58.6893V54.2704C94.7552 54.6064 94.0474 54.7819 93.3287 54.7815C92.3411 54.8122 91.3778 54.4726 90.6279 53.8293V44.2412C91.416 43.6 92.4078 43.2622 93.4236 43.289C94.4392 43.2546 95.4323 43.5933 96.2151 44.2412V58.6893H95.3904ZM95.3904 44.674C94.8297 44.248 94.1399 44.0268 93.4359 44.0475C92.7313 44.0224 92.0401 44.244 91.4815 44.674V53.4212C92.0437 53.8444 92.7324 54.0652 93.4359 54.0478C94.1325 54.0653 94.8167 53.8618 95.3904 53.4666V44.674Z" fill="white"/>
<path d="M101.394 54.7815C100.404 54.8102 99.4349 54.4988 98.6475 53.8993V43.4497H99.4721V53.4541C100.023 53.8614 100.697 54.0666 101.381 54.0354C102.058 54.0639 102.723 53.8587 103.266 53.4541V43.4497H104.09V53.9158C103.315 54.4999 102.364 54.8049 101.394 54.7815Z" fill="white"/>
<path d="M109.1 54.7817C108.137 54.8136 107.193 54.5074 106.433 53.916V44.1961C107.192 43.6081 108.125 43.2891 109.086 43.2891C110.047 43.2891 110.98 43.6081 111.739 44.1961V49.2209H107.257V53.4791C107.792 53.8618 108.439 54.0574 109.096 54.0356C109.748 54.0701 110.391 53.8729 110.911 53.4791V51.0058H111.735V53.8913C110.989 54.4882 110.056 54.8034 109.1 54.7817ZM110.915 44.6165C110.398 44.2148 109.755 44.0089 109.1 44.0353C108.438 44.007 107.787 44.2127 107.261 44.6165V48.5243H110.915V44.6165Z" fill="white"/>
<line x1="18" y1="68.5" x2="120" y2="68.5" stroke="white"/>
</svg>
