<svg width="229" height="55" viewBox="0 0 229 55" fill="none" xmlns="http://www.w3.org/2000/svg">
<g clip-path="url(#clip0)">
<path d="M55.1708 5.99219C55.1703 5.82003 55.1611 5.648 55.1432 5.47678V0.0736359H49.5171C49.424 0.0736359 49.3343 0.0736359 49.2377 0.0736359L16.2056 0.0148315C1.69024 0.33653 0.0965848 12.5853 0.0965848 15.8507L0 55.0148H55.1915L55.1708 5.99219Z" fill="#255769"/>
<path d="M5.83643 48.054V41.7896H7.14032V48.054H5.83643Z" fill="#C8D400"/>
<path d="M8.59619 48.054V41.7896H10.3623L12.0215 46.1273H12.0388V41.7896H13.2599V48.054H11.5351L9.8311 43.4741H9.81385V48.054H8.59619Z" fill="#C8D400"/>
<path d="M17.5613 43.7164C17.5613 43.1353 17.4751 42.6233 16.7817 42.6233C15.9676 42.6233 15.9676 43.7233 15.9676 44.9409C15.9676 46.9022 16.1608 47.2482 16.9024 47.2482C17.1248 47.2432 17.345 47.2023 17.5544 47.1271V45.7434H16.8438V44.7818H18.8583V47.9573C18.2767 48.0701 17.6875 48.1395 17.0956 48.1648C14.8948 48.1648 14.6465 47.2551 14.6465 44.8787C14.6465 43.2978 14.7224 41.6928 16.861 41.6928C18.1408 41.6928 18.9307 42.4123 18.8583 43.7233L17.5613 43.7164Z" fill="#C8D400"/>
<path d="M20.3413 48.054V41.7896H23.7494V42.7546H21.6452V44.2974H23.5804V45.2625H21.6418V47.0958H23.8149V48.0575L20.3413 48.054Z" fill="#C8D400"/>
<path d="M25.0225 48.054V41.7896H26.7886L28.4478 46.1273V41.7896H29.6689V48.054H27.9442L26.2401 43.4741H26.2229V48.054H25.0225Z" fill="#C8D400"/>
<path d="M31.1313 48.054V41.7896H32.4387V48.054H31.1313Z" fill="#C8D400"/>
<path d="M33.8843 48.054V41.7896H37.2924V42.7546H35.1916V44.2974H37.1302V45.2625H35.1916V47.0958H37.3786V48.0575L33.8843 48.054Z" fill="#C8D400"/>
<path d="M39.8376 48.054H38.5303V41.7896H40.9449C41.8349 41.7896 42.4075 42.3638 42.4075 43.4292C42.4075 44.2282 42.097 44.8128 41.2485 44.965V44.9823C41.4066 44.9779 41.5639 45.0075 41.7097 45.0692C41.8555 45.1309 41.9864 45.2232 42.0936 45.3399C42.2008 45.4566 42.2818 45.595 42.3312 45.7457C42.3806 45.8964 42.3972 46.056 42.3799 46.2138C42.3799 46.615 42.4075 47.7946 42.5282 48.054H41.2485C41.1163 47.6639 41.0693 47.2498 41.1105 46.8399C41.1105 46.0927 41.1795 45.4562 40.1757 45.4562H39.8307L39.8376 48.054ZM39.8376 44.498H40.4171C40.938 44.498 41.0829 43.9757 41.0829 43.5779C41.0829 42.9795 40.8311 42.7546 40.4171 42.7546H39.8376V44.498Z" fill="#C8D400"/>
<path d="M43.7148 48.054V41.7896H45.0222V48.054H43.7148Z" fill="#C8D400"/>
<path d="M46.4678 48.054V41.7896H49.8758V42.7546H47.7751V44.2974H49.7137V45.2625H47.7751V47.0958H49.9448V48.0575L46.4678 48.054Z" fill="#C8D400"/>
<path d="M35.6124 11.9927C37.8373 9.72004 41.4524 8.72382 46.7335 8.72382H55.8677V13.7049H46.2092C41.0833 13.7049 38.779 15.7354 38.6997 20.6751H55.8677V25.6147H38.7101V37.3273H32.7114V24.1826C32.7114 18.4855 33.0288 14.6216 35.6124 11.9927Z" fill="white"/>
<path d="M73.6497 13.5944C81.5835 13.5944 85.2778 17.4686 85.2778 25.7428C85.2778 34.017 81.5731 37.9224 73.6497 37.9224C65.6262 37.9224 62.0181 34.0135 62.0181 25.511C62.0181 17.4686 65.8194 13.5944 73.6497 13.5944ZM67.3889 25.5456C67.3889 31.2463 69.2723 33.8856 73.66 33.8856C77.9788 33.8856 79.9622 31.2462 79.9622 25.7428C79.9622 20.2393 77.9788 17.5966 73.66 17.5966C69.4275 17.5966 67.3889 20.2359 67.3889 25.5456Z" fill="#255769"/>
<path d="M100.704 14.0475C106.223 14.0475 108.859 16.1645 108.859 21.0834C108.859 24.6982 107.172 27.0123 104.15 27.6557L109.966 37.4277H104.447L99.3139 28.2438H93.5292V37.4277H88.624V14.0475H100.704ZM93.5292 18.1985V24.0963H99.5382C102.46 24.0963 103.888 23.5082 103.888 21.1318C103.888 18.7554 102.46 18.1985 99.5382 18.1985H93.5292Z" fill="#255769"/>
<path d="M136.033 18.1534V14.082H156.209V18.1534H148.651V37.4346H143.584V18.1534H136.033Z" fill="#255769"/>
<path d="M164.581 28.0708C164.581 32.2218 165.782 33.934 169.842 33.934C173.902 33.934 175.071 32.2045 175.071 28.0708V14.0475H179.976V28.1815C179.976 31.1806 179.655 33.2353 178.596 34.4736C176.682 36.7497 173.891 37.6975 169.828 37.6975C165.764 37.6975 162.929 36.7497 161.028 34.4736C159.952 33.2007 159.693 31.1494 159.693 28.1815V14.0475H164.567L164.581 28.0708Z" fill="#255769"/>
<path d="M194.816 14.0475C202.322 14.0475 205.792 17.8906 205.792 26.1545C205.792 30.385 204.626 33.4463 202.222 35.3696C199.945 37.1925 197.772 37.4208 194.947 37.4208H184.129V14.0475H194.816ZM189.035 18.1189V33.3633H194.716C199.073 33.3633 200.432 31.5057 200.432 25.7532C200.432 20.0007 199.073 18.1431 194.716 18.1431L189.035 18.1189Z" fill="#255769"/>
<path d="M115.85 16.5829C117.668 14.7254 120.624 13.9125 124.947 13.9125H132.418V17.9839H124.522C120.331 17.9839 118.451 19.6442 118.386 23.6845H132.418V27.7247H118.386V37.2996H113.48V26.5486C113.48 21.8927 113.739 18.731 115.85 16.5829Z" fill="#255769"/>
<path d="M132.38 33.3355H121.901V37.3412H132.38V33.3355Z" fill="#255769"/>
<path d="M228.103 33.3355H217.62V37.3412H228.103V33.3355Z" fill="#255769"/>
<path d="M211.656 16.5829C213.474 14.7254 216.433 13.9125 220.752 13.9125H228.224V17.9839H220.331C216.14 17.9839 214.257 19.6442 214.191 23.6845H228.224V27.7247H214.191V37.2996H209.283V26.5486C209.283 21.8927 209.545 18.731 211.656 16.5829Z" fill="#255769"/>
<path d="M229 42.1943H55.2983V48.656H229V42.1943Z" fill="#C8D400"/>
</g>
<defs>
<clipPath id="clip0">
<rect width="229" height="55" fill="white"/>
</clipPath>
</defs>
</svg>
