<svg width="92" height="92" viewBox="0 0 92 92" fill="none" xmlns="http://www.w3.org/2000/svg">
<g clip-path="url(#clip0)">
<path d="M30.1187 78.775C29.9564 78.7086 29.7823 78.6753 29.6068 78.6769C29.4313 78.6786 29.2579 78.7152 29.0969 78.7845C28.9359 78.8539 28.7905 78.9546 28.6694 79.0807C28.5482 79.2068 28.4538 79.3558 28.3916 79.5188C28.068 80.2627 28.3534 81.0499 29.0097 81.3243C29.666 81.5987 30.4405 81.2701 30.7622 80.5263C30.8375 80.3696 30.8806 80.1996 30.889 80.0262C30.8973 79.8528 30.8707 79.6795 30.8108 79.5164C30.7509 79.3533 30.6588 79.2037 30.54 79.0764C30.4211 78.9491 30.2779 78.8466 30.1187 78.775Z" fill="#0B1B49"/>
<path d="M52.3818 81.9325H52.3673C52.3673 81.9325 52.3673 82.4615 52.3509 82.772L52.2764 83.7325L53.1999 83.5376L52.7436 82.689C52.5945 82.4164 52.3818 81.9325 52.3818 81.9325Z" fill="#0B1B49"/>
<path d="M72.9697 59.8395C72.8948 59.8397 72.8214 59.8602 72.7574 59.8986C72.6933 59.9371 72.641 59.9922 72.6061 60.0579C70.0327 64.845 66.1981 68.8479 61.512 71.6388C56.8259 74.4298 51.4643 75.9041 46.0001 75.9041C40.5359 75.9041 35.1744 74.4298 30.4883 71.6388C25.8022 68.8479 21.9676 64.845 19.3942 60.0579C19.3592 59.9922 19.3069 59.9371 19.2429 59.8986C19.1788 59.8602 19.1055 59.8397 19.0306 59.8395H2.38166C2.31605 59.8395 2.2514 59.8551 2.19303 59.8849C2.13466 59.9146 2.08423 59.9577 2.04589 60.0106C2.00755 60.0634 1.98241 60.1246 1.97251 60.189C1.96262 60.2534 1.96826 60.3193 1.98898 60.3811C8.06826 78.7406 25.4753 91.9998 46.0001 91.9998C66.525 91.9998 83.932 78.7406 90.0113 60.3793C90.032 60.3175 90.0376 60.2516 90.0277 60.1872C90.0179 60.1228 89.9927 60.0616 89.9544 60.0088C89.916 59.9559 89.8656 59.9128 89.8072 59.8831C89.7489 59.8533 89.6842 59.8377 89.6186 59.8376L72.9697 59.8395ZM22.3611 74.0573L21.0885 72.8441L20.3923 73.5662L21.4412 74.5719L20.7449 75.294L19.696 74.2884L18.4652 75.5522L17.6217 74.7452L20.9486 71.3185L23.0574 73.3388L22.3611 74.0573ZM31.8745 81.0101C31.7445 81.3098 31.5564 81.5811 31.3208 81.8086C31.0852 82.036 30.8068 82.2152 30.5015 82.3358C30.1962 82.4564 29.87 82.5162 29.5415 82.5116C29.2129 82.507 28.8885 82.4382 28.5867 82.3091C28.285 82.18 28.0118 81.9931 27.7827 81.7592C27.5537 81.5252 27.3733 81.2488 27.2518 80.9456C27.1303 80.6424 27.0702 80.3184 27.0748 79.9921C27.0794 79.6658 27.1487 79.3436 27.2787 79.044C27.8241 77.7946 29.2148 77.2385 30.542 77.8C31.8691 78.3615 32.4163 79.7589 31.8745 81.0101ZM42.3478 82.6783C42.286 83.1802 41.9842 83.6984 41.4807 83.8789V83.8916C41.5342 83.9905 41.5822 84.0924 41.6243 84.1967L42.3515 85.957L41.0571 85.8017L40.4081 84.11L39.8627 84.045L39.6682 85.6338L38.5065 85.493L39.0828 80.7772L40.7371 80.9776C41.0518 80.9934 41.3604 81.0695 41.6461 81.2015C42.1515 81.4705 42.4315 81.9922 42.3478 82.6783ZM54.1646 85.3052L53.6665 84.3917L52.2121 84.7022L52.1394 85.7349L50.9632 85.9859L51.5522 81.0029L52.7557 80.7465L55.3463 85.0543L54.1646 85.3052ZM65.1706 81.438L65.1106 81.3206C65.0633 81.2322 65.0233 81.1401 65.0233 81.1401H65.0124C64.8204 81.5496 64.4924 81.8811 64.0834 82.0789C62.9927 82.635 61.5765 82.3371 60.8602 80.9559C60.2221 79.7264 60.6657 78.3037 61.9637 77.6411C63.0545 77.085 63.8889 77.3649 63.8889 77.3649L63.7907 78.394C63.3744 78.3025 62.9392 78.3521 62.5545 78.5348C61.6619 78.9916 61.5928 79.7427 61.9182 80.3691C62.3346 81.1726 63.1417 81.3658 63.8017 81.0281C64.1114 80.8603 64.3582 80.5974 64.5052 80.2789L64.3361 79.9539L63.7362 80.2608L63.2799 79.3816L64.8015 78.6034L66.0396 80.9884L65.1706 81.438ZM72.088 76.6535L68.8538 73.1528L71.0626 71.1415L71.7407 71.8745L70.3954 73.1022L70.9972 73.7378L72.0734 72.7592L72.7515 73.4922L71.6771 74.4726L72.2879 75.1334L73.7023 73.8443L74.3804 74.5773L72.088 76.6535Z" fill="#0B1B49"/>
<path d="M40.5079 81.9548L40.117 81.9078L39.9771 83.0561L40.4806 83.1157C40.5595 83.1351 40.6417 83.1367 40.7212 83.1206C40.8008 83.1044 40.8758 83.0708 40.9406 83.0221C41.0054 82.9735 41.0584 82.9111 41.0959 82.8395C41.1333 82.7679 41.1541 82.689 41.1569 82.6083C41.2005 82.2527 41.0933 82.0252 40.5079 81.9548Z" fill="#0B1B49"/>
<path d="M24.6981 24.8429C27.493 22.06 30.8133 19.852 34.4688 18.3454C38.1243 16.8389 42.0432 16.0634 46.001 16.0634C49.9588 16.0634 53.8777 16.8389 57.5332 18.3454C61.1887 19.852 64.509 22.06 67.3039 24.8429C68.1212 25.6552 68.892 26.5123 69.6127 27.4102C69.6512 27.4584 69.7001 27.4974 69.7558 27.5243C69.8115 27.5512 69.8726 27.5653 69.9345 27.5655H87.8142C87.8833 27.5656 87.9514 27.5485 88.0121 27.5157C88.0728 27.4829 88.1242 27.4355 88.1617 27.3778C88.1992 27.3201 88.2214 27.254 88.2265 27.1855C88.2315 27.1171 88.2191 27.0485 88.1905 26.986C80.9059 11.071 64.7551 0 46.001 0C27.2469 0 11.096 11.071 3.81146 26.986C3.78284 27.0485 3.77048 27.1171 3.77551 27.1855C3.78054 27.254 3.80281 27.3201 3.84027 27.3778C3.87773 27.4355 3.92918 27.4829 3.9899 27.5157C4.05062 27.5485 4.11866 27.5656 4.18778 27.5655H22.0675C22.1294 27.5653 22.1905 27.5512 22.2462 27.5243C22.3019 27.4974 22.3508 27.4584 22.3892 27.4102C23.11 26.5123 23.8808 25.6552 24.6981 24.8429ZM64.646 14.8462C64.646 14.8462 64.9151 16.0143 65.7368 16.574C66.0622 16.7978 66.5022 16.9134 66.7712 16.527C67.3039 15.7633 64.3733 13.79 65.7495 11.813C66.5749 10.6286 68.1238 10.5366 69.4091 11.4194C70.8017 12.3763 70.9817 13.5769 70.9817 13.5769L69.4164 14.4002C69.4164 14.4002 69.16 13.3874 68.382 12.853C68.0565 12.6291 67.5948 12.5244 67.3439 12.8836C66.7822 13.6925 69.7927 15.5503 68.3783 17.5778C67.6348 18.6466 66.1677 19.0059 64.7115 18.0057C63.8237 17.4171 63.2046 16.5053 62.9881 15.4672L64.646 14.8462ZM50.6368 8.34476C51.1531 6.13129 53.2638 4.82234 55.5671 5.35134C57.4633 5.78645 58.1886 7.08456 58.1886 7.08456L56.9942 8.2906C56.9942 8.2906 56.3179 7.31566 55.2563 7.07373C53.7892 6.73611 52.842 7.65147 52.5875 8.74737C52.3239 9.87578 52.8038 11.2082 54.2236 11.5314C55.3635 11.7932 56.4652 11.071 56.4652 11.071L57.1124 12.6544C56.6168 12.9729 56.0607 13.187 55.4785 13.2836C54.8962 13.3802 54.3002 13.3571 53.7273 13.2158C51.3294 12.6634 50.106 10.6016 50.6368 8.34476ZM41.3652 4.55333L41.6433 6.1674L39.2836 6.55737L40.3308 12.6399L38.4346 12.9613L37.3857 6.87874L35.0332 7.27955L34.7551 5.66548L41.3652 4.55333ZM24.9362 9.72593L25.9016 11.0547L23.5491 12.7338L24.5126 14.0626L26.4579 12.6724L27.4214 14.0012L25.4762 15.3932L27.185 17.7511L25.6234 18.8669L21.0276 12.5153L24.9362 9.72593Z" fill="#0B1B49"/>
<path d="M91.5873 46.0567H71.4643C73.5858 43.4804 75.7528 41.4709 78.1344 41.4709H91.3219C91.3798 41.471 91.4371 41.4589 91.49 41.4356C91.5429 41.4122 91.5903 41.378 91.6291 41.3353C91.6678 41.2926 91.6971 41.2422 91.7149 41.1875C91.7328 41.1328 91.7389 41.0749 91.7327 41.0177C91.5946 39.7311 91.4025 38.46 91.1565 37.2046C91.138 37.1113 91.0875 37.0271 91.0136 36.9666C90.9396 36.906 90.8469 36.8727 90.751 36.8724H78.1344C72.2533 36.8724 68.7318 41.386 65.2123 46.0531H26.7859C23.2682 41.3842 19.7468 36.8724 13.8656 36.8724H1.24896C1.15313 36.8727 1.06037 36.906 0.986458 36.9666C0.912544 37.0271 0.862045 37.1113 0.843552 37.2046C0.601157 38.4576 0.409059 39.7286 0.267257 41.0177C0.261134 41.0749 0.267202 41.1328 0.285065 41.1875C0.302929 41.2422 0.332189 41.2926 0.370942 41.3353C0.409695 41.378 0.457074 41.4122 0.509997 41.4356C0.56292 41.4589 0.620202 41.471 0.678118 41.4709H13.8656C16.2472 41.4709 18.4106 43.4804 20.5358 46.0567H0.412695C0.358194 46.0567 0.304232 46.0674 0.253925 46.0883C0.203618 46.1091 0.157962 46.1396 0.119594 46.178C0.081225 46.2165 0.0509034 46.2621 0.0303795 46.3122C0.00985555 46.3624 -0.000464166 46.416 1.6019e-05 46.4702C0.0133478 47.7544 0.0787945 49.0249 0.196356 50.2815C0.205895 50.383 0.253358 50.4773 0.3294 50.5458C0.405442 50.6143 0.504553 50.652 0.607217 50.6516H24.059C27.5477 55.3313 30.8036 59.8467 37.0011 59.8467H54.9989C61.1909 59.8467 64.4415 55.3331 67.9283 50.6588H91.3801C91.4827 50.6592 91.5818 50.6215 91.6579 50.553C91.7339 50.4845 91.7814 50.3902 91.7909 50.2887C91.9121 49.0321 91.9776 47.7617 91.9873 46.4774C91.9902 46.369 91.9498 46.2638 91.8748 46.185C91.7998 46.1062 91.6965 46.06 91.5873 46.0567ZM61.68 50.6588C59.5566 53.2406 57.3877 55.2536 55.0044 55.2536H37.0011C34.6177 55.2536 32.4562 53.2406 30.3255 50.6588H61.6854H61.68Z" fill="#0B1B49"/>
</g>
<defs>
<clipPath id="clip0">
<rect width="92" height="92" fill="white"/>
</clipPath>
</defs>
</svg>
