<?xml version="1.0" encoding="utf-8"?>
<!-- Generator: Adobe Illustrator 17.0.0, SVG Export Plug-In . SVG Version: 6.00 Build 0)  -->
<!DOCTYPE svg PUBLIC "-//W3C//DTD SVG 1.1//EN" "http://www.w3.org/Graphics/SVG/1.1/DTD/svg11.dtd">
<svg version="1.1" id="Calque_1" xmlns="http://www.w3.org/2000/svg" xmlns:xlink="http://www.w3.org/1999/xlink" x="0px" y="0px"
	 width="171.596px" height="41.424px" viewBox="0 0 171.596 41.424" enable-background="new 0 0 171.596 41.424"
	 xml:space="preserve">
<g>
	<path fill="#255769" d="M41.468,34.747h-0.018V4.493c0-0.134-0.008-0.265-0.02-0.396V0.052h-4.243
		c-0.066-0.002-0.131-0.01-0.198-0.01L12.145,0C1.229,0.24,0.031,9.427,0.031,11.874l-0.043,22.873h-0.03v6.648h3.99
		c0.163,0.018,0.326,0.029,0.494,0.029h32.547c0.167,0,0.332-0.012,0.493-0.029h3.986V34.747z"/>
</g>
<rect x="-0.041" y="34.598" fill="#255769" width="41.51" height="6.65"/>
<g>
	<path fill="#C8D400" d="M4.349,36.037v-4.704h0.984v4.704H4.349z"/>
	<path fill="#C8D400" d="M6.164,36.037v-4.704h1.329l1.251,3.258h0.013v-3.258h0.918v4.704H8.38l-1.284-3.44H7.083v3.44H6.164z"/>
	<path fill="#C8D400" d="M12.649,32.779c0.006-0.437-0.065-0.821-0.586-0.821c-0.612,0-0.612,0.828-0.612,1.74
		c0,1.473,0.143,1.733,0.704,1.733c0.163,0,0.339-0.04,0.489-0.092v-1.042h-0.534v-0.724h1.518v2.385
		c-0.267,0.052-0.938,0.156-1.329,0.156c-1.655,0-1.844-0.684-1.844-2.47c0-1.186,0.059-2.391,1.668-2.391
		c0.964,0,1.564,0.541,1.505,1.524H12.649z"/>
	<path fill="#C8D400" d="M14.476,36.037v-4.704h2.567v0.723H15.46v1.16h1.46v0.724h-1.46v1.374h1.635v0.724H14.476z"/>
	<path fill="#C8D400" d="M17.737,36.037v-4.704h1.329l1.251,3.258h0.013v-3.258h0.919v4.704h-1.296l-1.284-3.44h-0.013v3.44H17.737z
		"/>
	<path fill="#C8D400" d="M22.072,36.037v-4.704h0.984v4.704H22.072z"/>
	<path fill="#C8D400" d="M23.881,36.037v-4.704h2.567v0.723h-1.583v1.16h1.459v0.724h-1.459v1.374H26.5v0.724H23.881z"/>
	<path fill="#C8D400" d="M28.1,36.037h-0.984v-4.704h1.818c0.671,0,1.101,0.43,1.101,1.231c0,0.6-0.235,1.049-0.873,1.153v0.013
		c0.215,0.026,0.854,0.078,0.854,0.926c0,0.299,0.02,1.186,0.11,1.381h-0.964c-0.13-0.287-0.104-0.606-0.104-0.912
		c0-0.561,0.052-1.036-0.704-1.036H28.1V36.037z M28.1,33.366h0.437c0.391,0,0.501-0.392,0.501-0.691
		c0-0.449-0.189-0.619-0.501-0.619H28.1V33.366z"/>
	<path fill="#C8D400" d="M30.754,36.037v-4.704h0.984v4.704H30.754z"/>
	<path fill="#C8D400" d="M32.564,36.037v-4.704h2.567v0.723h-1.583v1.16h1.459v0.724h-1.459v1.374h1.635v0.724H32.564z"/>
</g>
<g>
	<path fill="#FFFFFF" d="M26.742,8.992c1.673-1.703,4.391-2.45,8.364-2.45h6.87v3.734h-7.257c-3.855,0-5.588,1.523-5.648,5.229
		h12.905v3.704H29.071v8.784h-4.51v-9.858C24.56,13.862,24.8,10.965,26.742,8.992"/>
	<path fill="#255769" d="M50.632,19.157c0,4.275,1.418,6.255,4.715,6.255c3.248,0,4.74-1.98,4.74-6.109
		c0-4.128-1.492-6.106-4.74-6.106C52.172,13.197,50.632,15.176,50.632,19.157 M55.347,10.193c5.96,0,8.747,2.905,8.747,9.11
		c0,6.207-2.787,9.136-8.747,9.136c-6.032,0-8.745-2.93-8.745-9.306C46.602,13.099,49.46,10.193,55.347,10.193"/>
	<path fill="#255769" d="M70.298,13.662v4.421h4.519c2.199,0,3.273-0.44,3.273-2.224c0-1.808-1.074-2.197-3.273-2.197H70.298z
		 M75.695,10.534c4.154,0,6.132,1.589,6.132,5.277c0,2.711-1.27,4.445-3.541,4.933l4.373,7.33h-4.154l-3.861-6.891h-4.346v6.891
		h-3.689V10.534H75.695z"/>
</g>
<polygon fill="#255769" points="102.275,13.612 102.275,10.559 117.445,10.559 117.445,13.612 111.755,13.612 111.755,28.075 
	107.945,28.075 107.945,13.612 "/>
<g>
	<path fill="#255769" d="M123.733,21.039c0,3.102,0.903,4.397,3.958,4.397c3.053,0,3.932-1.295,3.932-4.397V10.533h3.688v10.602
		c0,2.248-0.244,3.789-1.026,4.717c-1.441,1.709-3.541,2.418-6.594,2.418c-3.055,0-5.18-0.709-6.621-2.418
		c-0.807-0.955-1.002-2.492-1.002-4.717V10.533h3.665V21.039z"/>
	<path fill="#255769" d="M142.123,13.588V25.02h4.275c3.275,0,4.299-1.393,4.299-5.715c0-4.3-1.023-5.717-4.299-5.717H142.123z
		 M146.473,10.534c5.643,0,8.256,2.883,8.256,9.089c0,3.174-0.881,5.469-2.688,6.913c-1.711,1.367-3.346,1.539-5.471,1.539h-8.135
		V10.534H146.473z"/>
	<path fill="#255769" d="M87.085,12.436c1.37-1.393,3.59-2.004,6.84-2.004h5.619v3.054h-5.937c-3.152,0-4.566,1.246-4.615,4.275
		h10.553v3.03H88.992v7.182h-3.688v-8.061C85.304,16.419,85.498,14.049,87.085,12.436"/>
</g>
<rect x="91.635" y="25.002" fill="#255769" width="7.881" height="3.002"/>
<rect x="163.624" y="25.002" fill="#255769" width="7.881" height="3.002"/>
<g>
	<path fill="#255769" d="M159.139,12.436c1.367-1.393,3.591-2.004,6.84-2.004h5.617v3.054h-5.936c-3.15,0-4.568,1.246-4.617,4.275
		h10.553v3.03h-10.553v7.182h-3.688v-8.061C157.354,16.419,157.549,14.049,159.139,12.436"/>
</g>
<rect x="41.548" y="31.643" fill="#C8D400" width="130.634" height="4.848"/>
</svg>
