<svg width="156" height="49" viewBox="0 0 156 49" fill="none" xmlns="http://www.w3.org/2000/svg">
<path d="M39.3493 37.3769C39.4942 37.3769 39.6681 37.3334 39.871 37.2464C40.0739 37.1594 40.2333 37.1159 40.3492 37.1159V37.3769C39.9434 37.522 39.2334 37.6815 38.219 37.8556C37.2336 38.0296 36.1323 38.1166 34.915 38.1166C33.8427 38.1166 32.7413 38.0006 31.611 37.7685C30.4807 37.5655 29.4518 37.1739 28.5244 36.5938C27.6259 35.9846 26.8869 35.1724 26.3072 34.1572C25.7276 33.1129 25.4378 31.7786 25.4378 30.1542V26.4558C25.4378 24.0773 24.8002 22.4529 23.5249 21.5827C22.2787 20.6834 20.3369 20.2338 17.6995 20.2338H15.4824V34.1572C15.4824 34.7953 15.5403 35.3175 15.6562 35.7236C15.7722 36.1297 15.9751 36.4632 16.2649 36.7243C16.5837 36.9563 16.9894 37.1304 17.4821 37.2464C18.0038 37.3334 18.6704 37.3769 19.4819 37.3769V37.638H1.31V37.3769C2.81708 37.3769 3.81697 37.1739 4.30967 36.7678C4.83135 36.3327 5.15015 35.5495 5.26608 34.4182V7.05017C5.20812 6.44102 5.10668 5.94791 4.96177 5.57082C4.84584 5.16472 4.62847 4.86015 4.30967 4.6571C4.01984 4.42504 3.62858 4.2655 3.13588 4.17848C2.67217 4.09146 2.06354 4.04795 1.31 4.04795V3.56934H18.6994C21.047 3.56934 23.1337 3.78689 24.9596 4.22199C26.7855 4.6571 28.3215 5.25174 29.5678 6.00592C30.814 6.7601 31.7559 7.65932 32.3935 8.70357C33.0601 9.71881 33.3934 10.8211 33.3934 12.0104C33.3934 13.0546 33.1616 14.0554 32.6979 15.0126C32.2631 15.9408 31.611 16.7675 30.7415 17.4927C29.8721 18.2179 28.7997 18.798 27.5245 19.2331C26.2783 19.6682 24.8436 19.9148 23.2206 19.9728C24.6987 20.0308 26.1623 20.2338 27.6115 20.5819C29.0896 20.901 30.4082 21.4086 31.5675 22.1048C32.7558 22.7719 33.7412 23.6567 34.5237 24.7589C35.3063 25.8322 35.7555 27.152 35.8714 28.7184V29.7191C35.8714 32.5328 36.1467 34.5198 36.6974 35.68C37.2481 36.8113 38.132 37.3769 39.3493 37.3769ZM17.6995 19.9728C18.9457 19.9728 19.9891 19.8858 20.8296 19.7117C21.6991 19.5377 22.3946 19.1751 22.9163 18.6239C23.467 18.0438 23.8582 17.2316 24.0901 16.1874C24.322 15.1431 24.4379 13.7508 24.4379 12.0104C24.4379 10.56 24.322 9.34172 24.0901 8.35548C23.8582 7.34024 23.4525 6.51354 22.8728 5.87539C22.3222 5.23724 21.5831 4.77312 20.6557 4.48306C19.7283 4.19299 18.5835 4.04795 17.2213 4.04795H15.4824V19.9728H17.6995Z" fill="white"/>
<path d="M70.4698 37.4955C70.5491 37.4955 70.6442 37.4716 70.7551 37.4242C70.8659 37.3766 70.9529 37.3529 71.0164 37.3529V37.4955C70.7947 37.5748 70.4066 37.6618 69.8523 37.757C69.3137 37.852 68.7121 37.8996 68.0467 37.8996C67.4607 37.8996 66.8589 37.8363 66.2413 37.7094C65.6237 37.5985 65.0615 37.3845 64.5545 37.0674C64.0638 36.7345 63.66 36.2907 63.3431 35.736C63.0264 35.1653 62.868 34.4362 62.868 33.5486V31.5275C62.868 30.2278 62.5195 29.3402 61.8227 28.8647C61.1416 28.3733 60.0806 28.1277 58.6395 28.1277H57.4278V35.736C57.4278 36.0848 57.4594 36.37 57.5229 36.5919C57.5862 36.8138 57.6971 36.9961 57.8555 37.1387C58.0297 37.2656 58.2514 37.3606 58.5207 37.4242C58.8057 37.4716 59.1699 37.4955 59.6133 37.4955V37.6381H49.6835V37.4955C50.5068 37.4955 51.0534 37.3845 51.3224 37.1626C51.6077 36.9248 51.7818 36.4969 51.8451 35.8786V20.9234C51.8134 20.5905 51.7581 20.3211 51.6789 20.115C51.6156 19.8931 51.4968 19.7267 51.3224 19.6157C51.1642 19.4889 50.9502 19.4017 50.6812 19.3542C50.4278 19.3066 50.095 19.2828 49.6835 19.2828V19.0213H59.1858C60.4685 19.0213 61.609 19.1402 62.6067 19.378C63.6044 19.6157 64.4437 19.9407 65.1248 20.3528C65.8059 20.7649 66.3205 21.2563 66.669 21.8269C67.0333 22.3817 67.2154 22.984 67.2154 23.6339C67.2154 24.2045 67.0886 24.7514 66.8352 25.2744C66.5976 25.7817 66.2413 26.2335 65.7662 26.6297C65.2912 27.0259 64.705 27.343 64.0082 27.5807C63.3271 27.8185 62.5434 27.9532 61.6563 27.9851C62.4642 28.0167 63.2639 28.1277 64.0558 28.3179C64.8634 28.4922 65.5841 28.7695 66.2176 29.1499C66.8668 29.5145 67.4054 29.9979 67.8329 30.6003C68.2607 31.1867 68.506 31.908 68.5693 32.764V33.3107C68.5693 34.8484 68.7198 35.9342 69.0207 36.5682C69.3217 37.1863 69.8047 37.4955 70.4698 37.4955ZM58.6395 27.9851C59.3203 27.9851 59.8906 27.9374 60.3499 27.8422C60.825 27.7472 61.2052 27.549 61.4901 27.2478C61.7911 26.9309 62.0048 26.4871 62.1316 25.9164C62.2582 25.3457 62.3217 24.5849 62.3217 23.6339C62.3217 22.8414 62.2582 22.1756 62.1316 21.6367C62.0048 21.0819 61.7831 20.6302 61.4665 20.2814C61.1655 19.9327 60.7617 19.6791 60.2548 19.5206C59.7481 19.3621 59.1225 19.2828 58.3782 19.2828H57.4278V27.9851H58.6395ZM88.6601 30.9808H88.8026V37.6381H71.7221V37.3766C72.1655 37.3766 72.5218 37.3529 72.7911 37.3052C73.0763 37.2576 73.298 37.1706 73.4562 37.0437C73.6306 36.9011 73.7492 36.7029 73.8127 36.4493C73.876 36.1957 73.9076 35.8629 73.9076 35.4507V20.8996C73.9076 20.218 73.7651 19.7584 73.4801 19.5206C73.1949 19.267 72.609 19.1402 71.7221 19.1402V19.0213H88.2563V24.9654H88.1375C87.995 24.5533 87.7732 24.0222 87.4723 23.3724C87.1873 22.7225 86.7596 22.0805 86.1896 21.4465C85.6194 20.8124 84.883 20.2735 83.9802 19.8297C83.0933 19.37 81.9927 19.1402 80.6781 19.1402H79.4428V28.0088H79.8466C80.3852 28.0088 80.8682 27.9532 81.2957 27.8422C81.7234 27.7155 82.0956 27.557 82.4122 27.3667C82.7448 27.1765 83.03 26.9626 83.2675 26.7247C83.5051 26.4871 83.7032 26.2335 83.8614 25.964C84.2415 25.3776 84.4949 24.7038 84.6217 23.943H84.883V32.2409H84.6217C84.4949 31.4959 84.2415 30.8302 83.8614 30.2437C83.6556 29.8949 83.4418 29.6254 83.2201 29.4354C82.9984 29.2292 82.7291 29.039 82.4122 28.8647C82.0956 28.6904 81.7234 28.5476 81.2957 28.4366C80.8682 28.3257 80.3852 28.2703 79.8466 28.2703H79.4428V37.3766H79.9893C81.6522 37.3766 83.0141 37.131 84.0753 36.6395C85.1523 36.1322 86.0075 35.5378 86.641 34.8563C87.2902 34.159 87.7653 33.4534 88.0662 32.7403C88.3671 32.011 88.5652 31.4246 88.6601 30.9808ZM93.6963 37.2339C93.1577 37.2339 92.6826 37.2816 92.2708 37.3766C91.859 37.4716 91.582 37.5588 91.4395 37.6381V37.4716L91.4156 31.2186C91.4156 31.155 91.4395 31.1154 91.4869 31.0997C91.5028 31.0837 91.5265 31.0758 91.5583 31.0758C91.6216 31.0758 91.6533 31.0837 91.6533 31.0997C91.6692 31.0997 91.6769 31.1393 91.6769 31.2186C91.7561 32.0269 92.0491 32.8196 92.5561 33.5962C93.0628 34.3569 93.7199 35.0386 94.5278 35.641C95.3355 36.2431 96.246 36.7268 97.2596 37.0913C98.2733 37.4558 99.3106 37.6381 100.372 37.6381C101.37 37.6381 102.13 37.4082 102.652 36.9487C103.175 36.4889 103.436 35.8232 103.436 34.9513C103.436 34.143 103.135 33.4773 102.533 32.9542C101.948 32.4311 101.211 31.9636 100.324 31.5515C99.4374 31.1234 98.4713 30.7192 97.4261 30.3387C96.3808 29.9426 95.4147 29.4828 94.5278 28.9597C93.6407 28.4209 92.8964 27.7709 92.2947 27.0102C91.7086 26.2492 91.4156 25.2903 91.4156 24.1332C91.4156 23.4675 91.582 22.8176 91.9146 22.1836C92.2472 21.5337 92.7143 20.963 93.3161 20.4717C93.918 19.9644 94.6387 19.5602 95.478 19.2591C96.3172 18.9421 97.236 18.7836 98.2337 18.7836C98.7404 18.7836 99.279 18.8549 99.849 18.9975C100.419 19.1402 100.989 19.3066 101.559 19.4968C102.13 19.6712 102.684 19.8297 103.223 19.9724C103.777 20.115 104.299 20.1864 104.79 20.1864C105.012 20.1864 105.226 20.1626 105.432 20.115C105.511 20.115 105.574 20.123 105.622 20.1388C105.669 20.1388 105.693 20.1784 105.693 20.2577L105.836 25.6072L105.693 25.7501C105.645 25.7501 105.614 25.7262 105.598 25.6788C105.582 25.6628 105.574 25.6391 105.574 25.6072C105.511 25.1001 105.305 24.474 104.957 23.729C104.624 22.984 104.149 22.2707 103.531 21.5891C102.93 20.8917 102.185 20.2973 101.298 19.8059C100.427 19.2987 99.4055 19.0451 98.2337 19.0451C97.7427 19.0451 97.2913 19.1243 96.8795 19.2828C96.4677 19.4414 96.1115 19.6553 95.8105 19.9248C95.5096 20.1784 95.2799 20.4717 95.1217 20.8045C94.9633 21.1374 94.8841 21.4861 94.8841 21.8507C94.8841 22.6115 95.185 23.2297 95.7869 23.7052C96.4044 24.1649 97.1725 24.5849 98.0912 24.9654C99.0256 25.33 100.023 25.6865 101.084 26.0353C102.161 26.3841 103.159 26.82 104.078 27.343C105.012 27.8502 105.78 28.5002 106.382 29.2926C107 30.0692 107.309 31.068 107.309 32.2885C107.309 33.1128 107.142 33.8735 106.81 34.5709C106.477 35.2525 106.002 35.8469 105.384 36.3543C104.782 36.8455 104.054 37.226 103.199 37.4955C102.343 37.765 101.401 37.8996 100.372 37.8996C99.6748 37.8996 99.0334 37.86 98.4474 37.7807C97.8615 37.7174 97.3072 37.6461 96.7846 37.5668C96.2619 37.4875 95.7472 37.4162 95.2403 37.3529C94.7495 37.2736 94.2346 37.2339 93.6963 37.2339ZM123.383 19.0213H128.681V19.1402H127.469C127.168 19.1402 126.923 19.1719 126.732 19.2353C126.558 19.2828 126.424 19.3462 126.329 19.4255C126.234 19.5048 126.17 19.584 126.139 19.6633C126.123 19.7425 126.115 19.798 126.115 19.8297V32.5977C126.115 33.2791 126.036 33.9368 125.877 34.5709C125.735 35.2049 125.442 35.7676 124.998 36.2591C124.555 36.7505 123.929 37.1467 123.122 37.4479C122.33 37.7491 121.293 37.8996 120.01 37.8996C118.79 37.8996 117.634 37.7967 116.541 37.5905C115.448 37.3845 114.49 37.0437 113.667 36.5682C112.859 36.0768 112.218 35.4348 111.743 34.6424C111.267 33.8338 111.03 32.8353 111.03 31.6465V20.9234C110.966 20.2418 110.792 19.7742 110.507 19.5206C110.238 19.267 109.692 19.1402 108.868 19.1402V19.0213H118.774V19.1402C117.903 19.1402 117.325 19.267 117.04 19.5206C116.755 19.7742 116.613 20.2418 116.613 20.9234V32.4548C116.613 33.2791 116.668 34.0004 116.779 34.6185C116.906 35.2209 117.135 35.728 117.468 36.1401C117.8 36.5366 118.252 36.8378 118.822 37.0437C119.408 37.2497 120.16 37.3529 121.079 37.3529C122.235 37.3529 123.137 37.1783 123.787 36.8298C124.452 36.4653 124.943 36.0372 125.26 35.5457C125.576 35.0386 125.774 34.5155 125.854 33.9765C125.933 33.4377 125.972 32.9779 125.972 32.5977V19.8297C125.956 19.7029 125.901 19.584 125.806 19.473C125.711 19.3938 125.576 19.3225 125.402 19.2591C125.228 19.1798 124.967 19.1402 124.618 19.1402H123.383V19.0213ZM154.981 19.164C154.157 19.164 153.587 19.2908 153.27 19.5444C152.954 19.7821 152.795 20.2418 152.795 20.9234V35.736C152.795 36.4176 152.954 36.8851 153.27 37.1387C153.587 37.3766 154.157 37.4955 154.981 37.4955V37.6381H145.027V37.4955C145.439 37.4955 145.771 37.4716 146.025 37.4242C146.294 37.3606 146.508 37.2656 146.666 37.1387C146.84 36.9961 146.967 36.8138 147.046 36.5919C147.125 36.3543 147.181 36.0688 147.213 35.736V19.7108L143.435 32.4548L142.343 37.6381H139.611L132.009 20.6619V36.6872C132.024 36.8455 132.08 36.9804 132.175 37.0913C132.27 37.2023 132.405 37.2973 132.579 37.3766C132.753 37.4558 133.014 37.4955 133.363 37.4955H134.598V37.6381H129.158V37.4955H130.512C130.813 37.4955 131.043 37.4638 131.201 37.4002C131.375 37.3212 131.494 37.2339 131.557 37.1387C131.637 37.0437 131.684 36.9564 131.7 36.8772C131.716 36.7822 131.723 36.7188 131.723 36.6872V20.9234C131.723 20.2418 131.565 19.7821 131.248 19.5444C130.947 19.2908 130.385 19.164 129.562 19.164V19.0213H137.853L143.435 31.908L147.213 19.0213H154.981V19.164Z" fill="white"/>
<path d="M60.4408 10.0882V14.82H60.3614C60.238 14.4401 60.1054 14.1794 59.9641 14.038C59.8317 13.8878 59.6771 13.8127 59.5006 13.8127C59.324 13.8127 59.1166 13.8657 58.8782 13.9717C58.6488 14.0778 58.3705 14.1926 58.0437 14.3164C57.7259 14.4401 57.3552 14.5549 56.9313 14.661C56.5164 14.767 56.0353 14.82 55.488 14.82C54.6403 14.82 53.8633 14.6875 53.1571 14.4224C52.4509 14.1573 51.8415 13.7862 51.3295 13.309C50.8262 12.8318 50.4289 12.2707 50.1376 11.6257C49.855 10.9718 49.7137 10.2605 49.7137 9.4917C49.7137 8.85548 49.8287 8.21926 50.0582 7.58304C50.2965 6.94682 50.6673 6.37686 51.1706 5.8732C51.6739 5.36067 52.3183 4.94979 53.1042 4.64053C53.8899 4.32242 54.8347 4.16336 55.9382 4.16336C56.2737 4.16336 56.5695 4.18103 56.8255 4.21637C57.0815 4.25171 57.311 4.30032 57.5141 4.36218C57.7172 4.41519 57.9071 4.48587 58.0836 4.57424C58.2691 4.65377 58.4543 4.74215 58.6398 4.83934C58.8693 4.95421 59.0989 5.08675 59.3284 5.23698C59.5581 5.38719 59.7303 5.57718 59.845 5.80692C59.9155 5.88645 59.9687 5.99249 60.0039 6.12503C60.0481 6.24874 60.0701 6.36803 60.0701 6.4829C60.0701 6.81868 59.9508 7.10587 59.7124 7.34446C59.483 7.57419 59.2004 7.68906 58.8649 7.68906C58.5294 7.68906 58.2425 7.57419 58.0041 7.34446C57.7747 7.10587 57.6597 6.81868 57.6597 6.4829C57.6597 6.14712 57.7747 5.86435 58.0041 5.63462C58.2425 5.40486 58.5294 5.28999 58.8649 5.28999C59.1033 5.28999 59.3284 5.36509 59.5404 5.51533C59.4255 5.40043 59.2931 5.28999 59.1431 5.18395C58.9929 5.07793 58.8253 4.98513 58.6398 4.9056C58.4543 4.8084 58.2691 4.72005 58.0836 4.64053C57.8981 4.561 57.6996 4.49029 57.4875 4.42844C57.2757 4.36658 57.0417 4.31799 56.7857 4.28265C56.5386 4.24729 56.256 4.22962 55.9382 4.22962C55.4262 4.22962 54.9936 4.31799 54.6403 4.49472C54.2961 4.66262 54.0092 4.89235 53.7795 5.18395C53.55 5.46672 53.3735 5.79367 53.2498 6.16479C53.1262 6.52709 53.0334 6.90263 52.9716 7.29142C52.9187 7.68024 52.8878 8.0646 52.8789 8.44457C52.8702 8.82454 52.8658 9.17359 52.8658 9.4917C52.8658 10.5432 52.9187 11.4092 53.0247 12.0896C53.1395 12.7611 53.3071 13.2957 53.5278 13.6934C53.7486 14.0822 54.0222 14.3561 54.349 14.5152C54.6758 14.6654 55.0552 14.7405 55.488 14.7405C56.1676 14.7405 56.649 14.5815 56.9313 14.2633C57.2228 13.9452 57.3685 13.4283 57.3685 12.7126V11.1353C57.3685 10.9497 57.3508 10.7951 57.3156 10.6713C57.2801 10.5476 57.2185 10.4504 57.1301 10.3797C57.0417 10.3002 56.9183 10.2472 56.7594 10.2207C56.6091 10.1853 56.4106 10.1677 56.1633 10.1677V10.0882H60.4408ZM72.4827 14.5947C72.5269 14.5947 72.5798 14.5815 72.6417 14.5549C72.7035 14.5284 72.752 14.5152 72.7873 14.5152V14.5947C72.6639 14.6389 72.4475 14.6875 72.1386 14.7405C71.8384 14.7935 71.5029 14.82 71.1319 14.82C70.8054 14.82 70.4699 14.7847 70.1255 14.714C69.7811 14.6521 69.4679 14.5328 69.1853 14.3561C68.9116 14.1705 68.6863 13.9231 68.5097 13.6139C68.3332 13.2957 68.245 12.8893 68.245 12.3944V11.2678C68.245 10.5432 68.0506 10.0484 67.6623 9.78329C67.2826 9.50937 66.6911 9.37241 65.8876 9.37241H65.2123V13.6139C65.2123 13.8083 65.2299 13.9673 65.2652 14.091C65.3004 14.2147 65.3623 14.3164 65.4507 14.3959C65.5478 14.4666 65.6714 14.5196 65.8214 14.5549C65.9803 14.5815 66.1834 14.5947 66.4305 14.5947V14.6742H60.8949V14.5947C61.354 14.5947 61.6586 14.5328 61.8088 14.4091C61.9677 14.2766 62.0648 14.038 62.1001 13.6934V5.35627C62.0824 5.1707 62.0515 5.02049 62.0073 4.9056C61.9721 4.78191 61.9059 4.68911 61.8088 4.62725C61.7204 4.55657 61.6013 4.50796 61.4511 4.48147C61.3098 4.45495 61.1246 4.44171 60.8949 4.44171V4.2959H66.1921C66.9073 4.2959 67.5429 4.36218 68.0992 4.49472C68.6554 4.62725 69.1235 4.8084 69.5031 5.03816C69.8828 5.2679 70.1697 5.54182 70.3639 5.85993C70.567 6.16922 70.6684 6.505 70.6684 6.86729C70.6684 7.1854 70.5979 7.49024 70.4566 7.78186C70.324 8.0646 70.1255 8.31646 69.8606 8.53737C69.5959 8.75828 69.2691 8.93501 68.8807 9.06754C68.5011 9.20008 68.0639 9.27521 67.5695 9.29288C68.0197 9.31055 68.4655 9.37241 68.907 9.47843C69.3575 9.57562 69.7591 9.73028 70.1122 9.94234C70.4743 10.1456 70.7745 10.4151 71.0129 10.7509C71.2512 11.0778 71.3879 11.4799 71.4234 11.957V12.2619C71.4234 13.119 71.5072 13.7243 71.6749 14.0778C71.8427 14.4224 72.112 14.5947 72.4827 14.5947ZM65.8876 9.29288C66.2672 9.29288 66.5851 9.26636 66.8411 9.21335C67.106 9.16032 67.3179 9.04987 67.4768 8.88197C67.6446 8.70525 67.7637 8.45784 67.8345 8.13973C67.905 7.82162 67.9402 7.39747 67.9402 6.86729C67.9402 6.42547 67.905 6.05435 67.8345 5.75391C67.7637 5.44462 67.6403 5.19279 67.4635 4.9984C67.2959 4.80398 67.0708 4.66262 66.7882 4.57424C66.5056 4.48587 66.1569 4.44171 65.7419 4.44171H65.2123V9.29288H65.8876ZM79.3656 14.82C78.6504 14.82 77.9396 14.6831 77.2334 14.4091C76.5359 14.1352 75.9046 13.7597 75.3394 13.2825C74.7745 12.8053 74.3154 12.2442 73.9623 11.5992C73.6179 10.9453 73.4457 10.2428 73.4457 9.4917C73.4457 8.74059 73.6179 8.04253 73.9623 7.39747C74.3154 6.74358 74.7745 6.17804 75.3394 5.70087C75.9046 5.22371 76.5359 4.84817 77.2334 4.57424C77.9396 4.30032 78.6504 4.16336 79.3656 4.16336C80.0631 4.16336 80.7606 4.30032 81.4578 4.57424C82.1643 4.84817 82.8 5.22371 83.3649 5.70087C83.939 6.17804 84.4025 6.74358 84.7556 7.39747C85.1176 8.04253 85.2985 8.74059 85.2985 9.4917C85.2985 10.2428 85.1176 10.9453 84.7556 11.5992C84.4025 12.2442 83.939 12.8053 83.3649 13.2825C82.8 13.7597 82.1643 14.1352 81.4578 14.4091C80.7606 14.6831 80.0631 14.82 79.3656 14.82ZM79.3656 4.24289C78.8622 4.24289 78.443 4.32242 78.1075 4.48147C77.7718 4.64053 77.5027 4.91887 77.2996 5.31651C77.0965 5.71415 76.9509 6.25317 76.8625 6.93355C76.783 7.60513 76.7434 8.45784 76.7434 9.4917C76.7434 10.5432 76.783 11.4092 76.8625 12.0896C76.9509 12.7611 77.0965 13.2957 77.2996 13.6934C77.5027 14.0822 77.7718 14.3561 78.1075 14.5152C78.443 14.6654 78.8622 14.7405 79.3656 14.7405C79.851 14.7405 80.2616 14.6654 80.5971 14.5152C80.9325 14.3561 81.2018 14.0822 81.405 13.6934C81.6081 13.2957 81.7537 12.7611 81.8421 12.0896C81.9392 11.4092 81.9877 10.5432 81.9877 9.4917C81.9877 8.45784 81.9392 7.60513 81.8421 6.93355C81.7537 6.25317 81.6081 5.71415 81.405 5.31651C81.2018 4.91887 80.9325 4.64053 80.5971 4.48147C80.2616 4.32242 79.851 4.24289 79.3656 4.24289ZM94.2724 4.2959H97.2254V4.36218H96.5501C96.3823 4.36218 96.2456 4.37985 96.1396 4.41519C96.0425 4.44171 95.9674 4.47705 95.9145 4.52123C95.8616 4.5654 95.8261 4.60958 95.8084 4.65377C95.7997 4.69796 95.7952 4.72888 95.7952 4.74655V11.8642C95.7952 12.2442 95.7512 12.6109 95.6628 12.9644C95.5833 13.3178 95.4201 13.6315 95.1728 13.9055C94.9257 14.1794 94.5769 14.4003 94.1265 14.5682C93.6852 14.7361 93.1068 14.82 92.3917 14.82C91.712 14.82 91.0674 14.7626 90.4583 14.6477C89.849 14.5328 89.315 14.3429 88.8558 14.0778C88.4054 13.8038 88.0479 13.446 87.783 13.0041C87.5183 12.5535 87.3857 11.9968 87.3857 11.3341V5.35627C87.3504 4.9763 87.2533 4.71563 87.0944 4.57424C86.9444 4.43286 86.6396 4.36218 86.1805 4.36218V4.2959H91.7031V4.36218C91.2174 4.36218 90.8952 4.43286 90.7363 4.57424C90.5774 4.71563 90.4979 4.9763 90.4979 5.35627V11.7847C90.4979 12.2442 90.5288 12.6463 90.5907 12.9909C90.6612 13.3267 90.7892 13.6095 90.9747 13.8392C91.1602 14.0601 91.4118 14.228 91.7297 14.3429C92.0562 14.4577 92.4757 14.5152 92.9877 14.5152C93.6321 14.5152 94.1354 14.418 94.4975 14.2236C94.8682 14.0203 95.1418 13.7818 95.3184 13.5078C95.4952 13.2251 95.6056 12.9335 95.6495 12.633C95.6937 12.3326 95.7157 12.0763 95.7157 11.8642V4.74655C95.707 4.67587 95.6761 4.60958 95.6232 4.54773C95.5701 4.50356 95.4952 4.4638 95.3979 4.42844C95.3008 4.38427 95.1551 4.36218 94.9609 4.36218H94.2724V4.2959ZM102.656 4.2959C104.502 4.2959 105.888 4.54773 106.815 5.05141C107.751 5.55509 108.219 6.34594 108.219 7.42398C108.219 8.01602 108.1 8.5197 107.861 8.935C107.623 9.35031 107.305 9.69052 106.908 9.95559C106.51 10.2118 106.047 10.4018 105.517 10.5256C104.996 10.6404 104.449 10.6979 103.875 10.6979H101.902V13.6801C101.919 13.8745 101.95 14.0336 101.994 14.1573C102.038 14.2722 102.105 14.365 102.193 14.4356C102.281 14.4975 102.4 14.5417 102.551 14.5682C102.701 14.5859 102.891 14.5947 103.12 14.5947V14.6742H97.6242V14.5947C97.8536 14.5947 98.0391 14.5859 98.1804 14.5682C98.3304 14.5417 98.4497 14.4975 98.5378 14.4356C98.6262 14.365 98.6835 14.2722 98.7101 14.1573C98.7453 14.0336 98.7629 13.8745 98.7629 13.6801V5.27674C98.7629 5.09117 98.7453 4.94096 98.7101 4.82607C98.6835 4.70238 98.6262 4.60958 98.5378 4.54773C98.4497 4.47705 98.3304 4.42844 98.1804 4.40194C98.0391 4.37543 97.8536 4.36218 97.6242 4.36218V4.2959H102.656ZM103.425 10.552C103.919 10.552 104.303 10.4416 104.577 10.2207C104.859 9.99978 105.067 9.73028 105.199 9.41217C105.332 9.09406 105.411 8.75386 105.438 8.39156C105.473 8.02926 105.491 7.70673 105.491 7.42398C105.491 6.7524 105.411 6.2178 105.252 5.82017C105.102 5.41371 104.886 5.10442 104.603 4.89235C104.33 4.67144 103.999 4.53006 103.61 4.4682C103.23 4.39752 102.811 4.36218 102.352 4.36218H101.902V10.552H103.425ZM118.279 10.963H118.359V14.6742H108.837V14.5284C109.084 14.5284 109.283 14.5152 109.433 14.4887C109.592 14.4622 109.715 14.4135 109.804 14.3429C109.901 14.2633 109.967 14.1529 110.002 14.0115C110.038 13.8701 110.055 13.6846 110.055 13.4548V5.343C110.055 4.96303 109.976 4.70678 109.817 4.57424C109.658 4.43286 109.331 4.36218 108.837 4.36218V4.2959H118.054V7.60953H117.988C117.909 7.3798 117.785 7.08378 117.617 6.72148C117.458 6.35919 117.22 6.00131 116.902 5.64786C116.584 5.29441 116.174 4.99397 115.671 4.74655C115.176 4.49029 114.562 4.36218 113.83 4.36218H113.141V9.30612H113.366C113.666 9.30612 113.936 9.27521 114.174 9.21335C114.412 9.14265 114.62 9.0543 114.796 8.94825C114.982 8.84221 115.141 8.72292 115.273 8.59038C115.406 8.45784 115.516 8.31646 115.604 8.16622C115.816 7.83929 115.957 7.46375 116.028 7.03959H116.174V11.6654H116.028C115.957 11.2501 115.816 10.879 115.604 10.552C115.489 10.3577 115.37 10.2074 115.247 10.1014C115.123 9.98653 114.973 9.88049 114.796 9.78329C114.62 9.68609 114.412 9.60656 114.174 9.54471C113.936 9.48285 113.666 9.45193 113.366 9.45193H113.141V14.5284H113.446C114.373 14.5284 115.132 14.3915 115.723 14.1175C116.324 13.8348 116.801 13.5034 117.154 13.1234C117.516 12.7347 117.781 12.3414 117.948 11.9438C118.116 11.5373 118.227 11.2104 118.279 10.963Z" fill="white"/>
<path d="M45.3199 3.31313V38.1215" stroke="white" stroke-width="0.764762"/>
</svg>
